<svg width="287" height="149" viewBox="0 0 287 149" fill="none" xmlns="http://www.w3.org/2000/svg">
    <style>
        .path1 { animation: line-anim 4s ease-in-out forwards; }
        .path2 { animation: line-anim 4s ease-in-out forwards 1s; }
        .path3 { animation: line-anim 4s ease-in-out forwards 2s; }
        .path4 { animation: line-anim 4s ease-in-out forwards 3s; }

        @keyframes line-anim {
            to {
                stroke-dashoffset: 0;
            }
        }
    </style>
    <mask id="path-1-outside-1" maskUnits="userSpaceOnUse" x="0.790863" y="-0.568817" width="286" height="149" fill="black">
        <rect fill="white" x="0.790863" y="-0.568817" width="286" height="149" />
        <path d="M156.808 8.07998C157.384 8.27198 157.624 8.70398 157.528 9.37598C157.528 9.95198 157.192 10.336 156.52 10.528C154.792 10.912 153.256 12.256 151.912 14.56C150.664 16.768 149.272 20.128 147.736 24.64C146.296 29.056 144.616 34.768 142.696 41.776C140.872 48.784 138.568 57.232 135.784 67.12C138.088 66.352 139.912 65.68 141.256 65.104C142.696 64.432 143.704 64.24 144.28 64.528C144.952 64.72 145.192 65.584 145 67.12C144.904 68.56 144.472 71.008 143.704 74.464C143.416 76 142.312 77.536 140.392 79.072C138.568 80.608 135.592 81.76 131.464 82.528L119.8 123.712C119.32 125.056 119.08 126.496 119.08 128.032C119.176 129.568 119.416 131.056 119.8 132.496C120.184 133.936 120.664 135.28 121.24 136.528C121.912 137.68 122.632 138.544 123.4 139.12C124.072 139.6 124.264 140.224 123.976 140.992C123.688 141.76 123.16 142.096 122.392 142C118.168 141.904 114.712 141.28 112.024 140.128C109.432 138.88 107.464 137.392 106.12 135.664C104.776 133.84 103.96 131.872 103.672 129.76C103.48 127.648 103.72 125.632 104.392 123.712L115.912 82.816C112.456 82.432 108.568 81.904 104.248 81.232C100.024 80.464 95.944 79.696 92.008 78.928C88.072 78.16 84.568 77.488 81.496 76.912C78.52 76.24 76.456 75.808 75.304 75.616L68.824 98.8C66.328 106.864 63.016 114.064 58.888 120.4C57.16 123.088 55.096 125.728 52.696 128.32C50.392 130.912 47.8 133.216 44.92 135.232C42.04 137.248 38.824 138.88 35.272 140.128C31.816 141.376 28.024 142 23.896 142C19 142 15.256 141.04 12.664 139.12C10.168 137.2 8.48801 134.992 7.62401 132.496C6.76001 129.904 6.56801 127.312 7.04801 124.72C7.52801 122.128 8.29601 120.16 9.35201 118.816C10.504 117.376 11.752 116.368 13.096 115.792C14.536 115.12 15.736 114.832 16.696 114.928C17.752 115.024 18.424 115.552 18.712 116.512C19 117.376 18.616 118.672 17.56 120.4C15.736 123.376 14.872 125.968 14.968 128.176C15.064 130.288 15.832 131.968 17.272 133.216C18.712 134.368 20.632 135.088 23.032 135.376C25.432 135.568 27.976 135.184 30.664 134.224C33.352 133.168 35.992 131.536 38.584 129.328C41.176 127.024 43.432 124.048 45.352 120.4C46.696 117.904 47.8 115.504 48.664 113.2C49.624 110.896 50.584 108.16 51.544 104.992C52.6 101.824 53.752 97.936 55 93.328C56.248 88.624 57.88 82.672 59.896 75.472C58.264 75.664 56.68 75.952 55.144 76.336C53.704 76.624 52.552 76.72 51.688 76.624C50.824 76.432 50.392 75.952 50.392 75.184C50.392 74.32 51.112 72.88 52.552 70.864C53.032 70.192 54.184 69.52 56.008 68.848C57.832 68.08 59.944 67.456 62.344 66.976L76.024 18.016C70.36 17.344 65.416 17.872 61.192 19.6C57.064 21.328 53.704 23.68 51.112 26.656C48.616 29.632 46.936 32.896 46.072 36.448C45.304 40 45.448 43.264 46.504 46.24C46.888 47.392 46.744 48.688 46.072 50.128C45.4 51.472 44.536 52.48 43.48 53.152C42.424 53.728 41.368 53.728 40.312 53.152C39.256 52.48 38.536 50.704 38.152 47.824C37.96 45.904 38.008 43.744 38.296 41.344C38.584 38.944 39.304 36.256 40.456 33.28C42.952 26.752 46.216 21.712 50.248 18.16C54.28 14.512 58.264 11.872 62.2 10.24C66.232 8.51199 69.832 7.50398 73 7.21598C76.168 6.83198 78.184 6.63998 79.048 6.63998C80.584 6.63998 82.12 6.63998 83.656 6.63998C85.288 6.54398 86.344 6.49598 86.824 6.49598C87.496 6.49598 88.216 6.73598 88.984 7.21598C89.848 7.69598 90.568 8.27198 91.144 8.94399C91.816 9.61598 92.296 10.336 92.584 11.104C92.968 11.872 93.064 12.592 92.872 13.264L78.04 66.256C81.496 66.544 84.808 66.976 87.976 67.552C91.24 68.128 94.504 68.656 97.768 69.136C101.128 69.52 104.536 69.856 107.992 70.144C111.544 70.432 115.336 70.432 119.368 70.144C122.824 57.952 125.56 48.112 127.576 40.624C129.592 33.04 131.32 27.088 132.76 22.768C134.296 18.352 135.688 15.184 136.936 13.264C138.28 11.248 139.912 9.66398 141.832 8.51198C144.616 6.87998 147.304 6.20798 149.896 6.49598C152.584 6.78399 154.888 7.31198 156.808 8.07998Z" />
        <path d="M155.186 127.456C154.418 130.24 153.938 132.4 153.746 133.936C153.554 135.376 153.506 136.48 153.602 137.248C153.794 138.016 154.034 138.544 154.322 138.832C154.706 139.12 155.138 139.408 155.618 139.696C153.986 141.04 152.114 141.808 150.002 142C147.986 142.096 146.162 141.664 144.53 140.704C142.898 139.648 141.65 138.016 140.786 135.808C140.018 133.6 140.114 130.816 141.074 127.456C143.282 119.584 145.154 112.96 146.69 107.584C148.226 102.112 149.474 97.6 150.434 94.048C151.394 90.496 152.162 87.76 152.738 85.84C153.314 83.824 153.746 82.288 154.034 81.232C154.418 80.08 154.658 79.264 154.754 78.784C154.85 78.304 154.994 77.824 155.186 77.344C155.282 76.864 155.186 76.576 154.898 76.48C154.61 76.384 154.274 76.288 153.89 76.192C153.506 76.096 153.122 76 152.738 75.904C152.354 75.808 152.162 75.52 152.162 75.04C152.162 74.944 152.546 74.416 153.314 73.456C154.178 72.496 155.234 71.488 156.482 70.432C157.73 69.28 159.122 68.272 160.658 67.408C162.194 66.544 163.634 66.112 164.978 66.112C167.378 66.112 168.962 66.688 169.73 67.84C170.498 68.896 170.45 71.488 169.586 75.616C168.818 79.744 167.186 85.888 164.69 94.048C162.29 102.208 159.122 113.344 155.186 127.456ZM162.098 47.824C162.674 44.944 163.826 42.784 165.554 41.344C167.282 39.904 169.01 39.184 170.738 39.184C172.466 39.184 173.906 39.904 175.058 41.344C176.21 42.784 176.498 44.944 175.922 47.824C175.634 48.976 175.154 50.176 174.482 51.424C173.906 52.672 173.186 53.824 172.322 54.88C171.554 55.84 170.69 56.656 169.73 57.328C168.77 57.904 167.81 58.192 166.85 58.192C165.89 58.192 165.026 57.904 164.258 57.328C163.586 56.656 163.01 55.84 162.53 54.88C162.146 53.824 161.906 52.672 161.81 51.424C161.714 50.176 161.81 48.976 162.098 47.824Z" />
        <path d="M234.511 17.152C236.431 17.824 237.919 19.12 238.975 21.04C240.127 22.864 240.511 25.12 240.127 27.808C239.839 29.632 239.215 31.36 238.255 32.992C237.391 34.528 236.383 35.92 235.231 37.168C234.079 38.416 232.927 39.472 231.775 40.336C230.719 41.2 229.855 41.776 229.183 42.064C228.703 42.352 228.175 42.544 227.599 42.64C227.119 42.64 226.687 42.544 226.303 42.352C225.919 42.064 225.679 41.728 225.583 41.344C225.583 40.96 225.823 40.48 226.303 39.904C226.495 39.712 226.783 39.424 227.167 39.04C227.551 38.56 227.935 38.032 228.319 37.456C228.799 36.88 229.231 36.304 229.615 35.728C229.999 35.152 230.239 34.576 230.335 34C230.527 32.944 230.335 32.08 229.759 31.408C229.279 30.64 228.463 29.872 227.311 29.104C225.967 28.24 225.055 26.944 224.575 25.216C224.095 23.488 224.383 21.808 225.439 20.176C226.495 18.448 227.791 17.392 229.327 17.008C230.959 16.528 232.687 16.576 234.511 17.152ZM183.247 83.824C184.495 79.408 186.511 75.856 189.295 73.168C192.175 70.48 195.295 68.56 198.655 67.408C202.111 66.256 205.615 65.776 209.167 65.968C212.719 66.064 215.839 66.784 218.527 68.128C221.311 69.376 223.423 71.104 224.863 73.312C226.303 75.52 226.639 78.064 225.871 80.944L221.551 96.352C220.975 98.56 219.583 100.96 217.375 103.552C215.167 106.144 212.479 108.448 209.311 110.464C206.239 112.48 202.879 113.968 199.231 114.928C195.679 115.792 192.223 115.6 188.863 114.352C188.095 116.944 187.327 119.632 186.559 122.416C185.791 125.2 185.311 127.744 185.119 130.048C185.023 132.352 185.407 134.272 186.271 135.808C187.231 137.248 189.103 137.968 191.887 137.968C193.903 137.968 195.631 137.2 197.071 135.664C198.511 134.128 199.711 132.352 200.671 130.336C201.727 128.32 202.543 126.304 203.119 124.288C203.791 122.272 204.271 120.736 204.559 119.68C204.751 119.2 205.087 118.768 205.567 118.384C206.047 117.904 206.527 117.76 207.007 117.952C207.487 118.144 208.159 118.576 209.023 119.248C209.887 119.824 210.703 120.496 211.471 121.264C212.239 121.936 212.863 122.656 213.343 123.424C213.823 124.192 213.967 124.768 213.775 125.152C212.911 127.264 211.711 129.328 210.175 131.344C208.639 133.36 206.767 135.184 204.559 136.816C202.447 138.352 199.951 139.6 197.071 140.56C194.191 141.52 190.975 142 187.423 142C182.815 142 179.359 141.328 177.055 139.984C174.751 138.544 173.167 136.816 172.303 134.8C171.439 132.784 171.103 130.672 171.295 128.464C171.487 126.256 171.823 124.336 172.303 122.704L183.247 83.824ZM207.439 96.352C208.591 92.32 209.599 88.816 210.463 85.84C211.327 82.768 211.903 80.272 212.191 78.352C212.479 76.336 212.335 74.848 211.759 73.888C211.183 72.928 209.983 72.448 208.159 72.448C205.759 72.448 203.791 73.264 202.255 74.896C200.719 76.528 199.327 78.928 198.079 82.096C196.831 85.264 195.583 89.248 194.335 94.048C193.087 98.752 191.599 104.224 189.871 110.464C191.215 110.944 192.751 110.944 194.479 110.464C196.207 109.984 197.935 109.12 199.663 107.872C201.391 106.624 202.927 105.04 204.271 103.12C205.711 101.104 206.767 98.848 207.439 96.352ZM192.607 59.344C192.703 59.248 193.135 58.672 193.903 57.616C194.767 56.56 195.775 55.264 196.927 53.728C198.175 52.192 199.471 50.56 200.815 48.832C202.255 47.008 203.551 45.328 204.703 43.792C205.951 42.256 207.007 40.96 207.871 39.904C208.735 38.848 209.215 38.224 209.311 38.032C209.503 37.84 209.887 37.648 210.463 37.456C211.135 37.168 211.855 36.928 212.623 36.736C213.391 36.448 214.063 36.256 214.639 36.16C215.311 35.968 215.743 35.872 215.935 35.872C216.319 35.872 216.703 36.064 217.087 36.448C217.567 36.832 218.143 37.792 218.815 39.328C219.199 40.288 219.871 41.776 220.831 43.792C221.887 45.712 222.943 47.68 223.999 49.696C225.055 51.712 225.967 53.536 226.735 55.168C227.599 56.8 228.031 57.712 228.031 57.904C228.127 58.288 227.887 58.672 227.311 59.056C226.831 59.344 226.207 59.536 225.439 59.632C225.055 59.728 224.527 59.824 223.855 59.92C223.183 59.92 222.511 59.968 221.839 60.064C221.167 60.064 220.543 60.112 219.967 60.208C219.487 60.208 219.199 60.208 219.103 60.208C218.335 60.208 217.711 59.776 217.231 58.912C216.847 58.048 216.271 56.944 215.503 55.6C215.119 54.832 214.639 53.968 214.063 53.008C213.583 52.048 213.103 51.088 212.623 50.128C212.047 49.072 211.423 47.968 210.751 46.816C208.927 48.928 207.247 50.848 205.711 52.576C204.367 54.016 203.119 55.408 201.967 56.752C200.815 58 200.143 58.768 199.951 59.056C199.471 59.632 198.607 60.208 197.359 60.784C196.207 61.36 195.103 61.504 194.047 61.216C193.471 61.024 193.039 60.736 192.751 60.352C192.463 59.968 192.415 59.632 192.607 59.344Z" />
        <path d="M266.894 127.456C266.126 130.24 265.646 132.4 265.454 133.936C265.262 135.376 265.214 136.48 265.31 137.248C265.502 138.016 265.742 138.544 266.03 138.832C266.414 139.12 266.846 139.408 267.326 139.696C265.694 141.136 263.822 141.904 261.71 142C259.694 142.192 257.87 141.76 256.238 140.704C254.606 139.552 253.406 137.872 252.638 135.664C251.87 133.456 251.918 130.72 252.782 127.456L265.022 83.968C265.886 80.8 266.27 78.688 266.174 77.632C266.078 76.48 265.598 76.144 264.734 76.624C263.87 77.104 262.718 78.208 261.278 79.936C259.934 81.568 258.446 83.536 256.814 85.84C255.182 88.144 253.454 90.64 251.63 93.328C249.902 96.016 248.27 98.512 246.734 100.816L239.246 127.456C238.478 130.24 237.998 132.4 237.806 133.936C237.614 135.376 237.566 136.48 237.662 137.248C237.854 138.016 238.094 138.544 238.382 138.832C238.766 139.12 239.198 139.408 239.678 139.696C238.046 141.136 236.174 141.904 234.062 142C232.046 142.192 230.222 141.76 228.59 140.704C226.958 139.552 225.758 137.872 224.99 135.664C224.222 133.456 224.27 130.72 225.134 127.456C227.342 119.584 229.214 112.96 230.75 107.584C232.286 102.112 233.534 97.6 234.494 94.048C235.454 90.496 236.222 87.712 236.798 85.696C237.374 83.68 237.806 82.144 238.094 81.088C238.478 80.032 238.718 79.264 238.814 78.784C238.91 78.304 239.054 77.824 239.246 77.344C239.342 76.864 239.246 76.576 238.958 76.48C238.67 76.384 238.334 76.288 237.95 76.192C237.566 76.096 237.182 76 236.798 75.904C236.414 75.808 236.222 75.52 236.222 75.04C236.222 74.944 236.606 74.416 237.374 73.456C238.238 72.496 239.294 71.488 240.542 70.432C241.79 69.28 243.182 68.272 244.718 67.408C246.254 66.544 247.694 66.112 249.038 66.112C251.342 66.112 252.878 66.64 253.646 67.696C254.414 68.752 254.654 70.384 254.366 72.592C254.174 74.704 253.55 77.344 252.494 80.512C251.534 83.68 250.478 87.376 249.326 91.6C251.054 88.816 252.926 85.936 254.942 82.96C256.958 79.888 258.926 77.104 260.846 74.608C262.862 72.112 264.686 70.096 266.318 68.56C268.046 66.928 269.438 66.112 270.494 66.112C272.222 66.112 273.806 66.592 275.246 67.552C276.686 68.416 277.838 69.664 278.702 71.296C279.566 72.928 280.046 74.848 280.142 77.056C280.334 79.168 279.998 81.472 279.134 83.968L266.894 127.456Z" />
    </mask>
    <path class="path1" stroke-dasharray="1000" stroke-dashoffset="1000" d="M156.808 8.07998C157.384 8.27198 157.624 8.70398 157.528 9.37598C157.528 9.95198 157.192 10.336 156.52 10.528C154.792 10.912 153.256 12.256 151.912 14.56C150.664 16.768 149.272 20.128 147.736 24.64C146.296 29.056 144.616 34.768 142.696 41.776C140.872 48.784 138.568 57.232 135.784 67.12C138.088 66.352 139.912 65.68 141.256 65.104C142.696 64.432 143.704 64.24 144.28 64.528C144.952 64.72 145.192 65.584 145 67.12C144.904 68.56 144.472 71.008 143.704 74.464C143.416 76 142.312 77.536 140.392 79.072C138.568 80.608 135.592 81.76 131.464 82.528L119.8 123.712C119.32 125.056 119.08 126.496 119.08 128.032C119.176 129.568 119.416 131.056 119.8 132.496C120.184 133.936 120.664 135.28 121.24 136.528C121.912 137.68 122.632 138.544 123.4 139.12C124.072 139.6 124.264 140.224 123.976 140.992C123.688 141.76 123.16 142.096 122.392 142C118.168 141.904 114.712 141.28 112.024 140.128C109.432 138.88 107.464 137.392 106.12 135.664C104.776 133.84 103.96 131.872 103.672 129.76C103.48 127.648 103.72 125.632 104.392 123.712L115.912 82.816C112.456 82.432 108.568 81.904 104.248 81.232C100.024 80.464 95.944 79.696 92.008 78.928C88.072 78.16 84.568 77.488 81.496 76.912C78.52 76.24 76.456 75.808 75.304 75.616L68.824 98.8C66.328 106.864 63.016 114.064 58.888 120.4C57.16 123.088 55.096 125.728 52.696 128.32C50.392 130.912 47.8 133.216 44.92 135.232C42.04 137.248 38.824 138.88 35.272 140.128C31.816 141.376 28.024 142 23.896 142C19 142 15.256 141.04 12.664 139.12C10.168 137.2 8.48801 134.992 7.62401 132.496C6.76001 129.904 6.56801 127.312 7.04801 124.72C7.52801 122.128 8.29601 120.16 9.35201 118.816C10.504 117.376 11.752 116.368 13.096 115.792C14.536 115.12 15.736 114.832 16.696 114.928C17.752 115.024 18.424 115.552 18.712 116.512C19 117.376 18.616 118.672 17.56 120.4C15.736 123.376 14.872 125.968 14.968 128.176C15.064 130.288 15.832 131.968 17.272 133.216C18.712 134.368 20.632 135.088 23.032 135.376C25.432 135.568 27.976 135.184 30.664 134.224C33.352 133.168 35.992 131.536 38.584 129.328C41.176 127.024 43.432 124.048 45.352 120.4C46.696 117.904 47.8 115.504 48.664 113.2C49.624 110.896 50.584 108.16 51.544 104.992C52.6 101.824 53.752 97.936 55 93.328C56.248 88.624 57.88 82.672 59.896 75.472C58.264 75.664 56.68 75.952 55.144 76.336C53.704 76.624 52.552 76.72 51.688 76.624C50.824 76.432 50.392 75.952 50.392 75.184C50.392 74.32 51.112 72.88 52.552 70.864C53.032 70.192 54.184 69.52 56.008 68.848C57.832 68.08 59.944 67.456 62.344 66.976L76.024 18.016C70.36 17.344 65.416 17.872 61.192 19.6C57.064 21.328 53.704 23.68 51.112 26.656C48.616 29.632 46.936 32.896 46.072 36.448C45.304 40 45.448 43.264 46.504 46.24C46.888 47.392 46.744 48.688 46.072 50.128C45.4 51.472 44.536 52.48 43.48 53.152C42.424 53.728 41.368 53.728 40.312 53.152C39.256 52.48 38.536 50.704 38.152 47.824C37.96 45.904 38.008 43.744 38.296 41.344C38.584 38.944 39.304 36.256 40.456 33.28C42.952 26.752 46.216 21.712 50.248 18.16C54.28 14.512 58.264 11.872 62.2 10.24C66.232 8.51199 69.832 7.50398 73 7.21598C76.168 6.83198 78.184 6.63998 79.048 6.63998C80.584 6.63998 82.12 6.63998 83.656 6.63998C85.288 6.54398 86.344 6.49598 86.824 6.49598C87.496 6.49598 88.216 6.73598 88.984 7.21598C89.848 7.69598 90.568 8.27198 91.144 8.94399C91.816 9.61598 92.296 10.336 92.584 11.104C92.968 11.872 93.064 12.592 92.872 13.264L78.04 66.256C81.496 66.544 84.808 66.976 87.976 67.552C91.24 68.128 94.504 68.656 97.768 69.136C101.128 69.52 104.536 69.856 107.992 70.144C111.544 70.432 115.336 70.432 119.368 70.144C122.824 57.952 125.56 48.112 127.576 40.624C129.592 33.04 131.32 27.088 132.76 22.768C134.296 18.352 135.688 15.184 136.936 13.264C138.28 11.248 139.912 9.66398 141.832 8.51198C144.616 6.87998 147.304 6.20798 149.896 6.49598C152.584 6.78399 154.888 7.31198 156.808 8.07998Z" stroke="#87CEEB" stroke-width="12" mask="url(#path-1-outside-1)" />
    <path class="path2" stroke-dasharray="1000" stroke-dashoffset="1000" d="M155.186 127.456C154.418 130.24 153.938 132.4 153.746 133.936C153.554 135.376 153.506 136.48 153.602 137.248C153.794 138.016 154.034 138.544 154.322 138.832C154.706 139.12 155.138 139.408 155.618 139.696C153.986 141.04 152.114 141.808 150.002 142C147.986 142.096 146.162 141.664 144.53 140.704C142.898 139.648 141.65 138.016 140.786 135.808C140.018 133.6 140.114 130.816 141.074 127.456C143.282 119.584 145.154 112.96 146.69 107.584C148.226 102.112 149.474 97.6 150.434 94.048C151.394 90.496 152.162 87.76 152.738 85.84C153.314 83.824 153.746 82.288 154.034 81.232C154.418 80.08 154.658 79.264 154.754 78.784C154.85 78.304 154.994 77.824 155.186 77.344C155.282 76.864 155.186 76.576 154.898 76.48C154.61 76.384 154.274 76.288 153.89 76.192C153.506 76.096 153.122 76 152.738 75.904C152.354 75.808 152.162 75.52 152.162 75.04C152.162 74.944 152.546 74.416 153.314 73.456C154.178 72.496 155.234 71.488 156.482 70.432C157.73 69.28 159.122 68.272 160.658 67.408C162.194 66.544 163.634 66.112 164.978 66.112C167.378 66.112 168.962 66.688 169.73 67.84C170.498 68.896 170.45 71.488 169.586 75.616C168.818 79.744 167.186 85.888 164.69 94.048C162.29 102.208 159.122 113.344 155.186 127.456ZM162.098 47.824C162.674 44.944 163.826 42.784 165.554 41.344C167.282 39.904 169.01 39.184 170.738 39.184C172.466 39.184 173.906 39.904 175.058 41.344C176.21 42.784 176.498 44.944 175.922 47.824C175.634 48.976 175.154 50.176 174.482 51.424C173.906 52.672 173.186 53.824 172.322 54.88C171.554 55.84 170.69 56.656 169.73 57.328C168.77 57.904 167.81 58.192 166.85 58.192C165.89 58.192 165.026 57.904 164.258 57.328C163.586 56.656 163.01 55.84 162.53 54.88C162.146 53.824 161.906 52.672 161.81 51.424C161.714 50.176 161.81 48.976 162.098 47.824Z" stroke="#87CEEB" stroke-width="12" mask="url(#path-1-outside-1)" />
    <path class="path3" stroke-dasharray="1000" stroke-dashoffset="1000" d="M234.511 17.152C236.431 17.824 237.919 19.12 238.975 21.04C240.127 22.864 240.511 25.12 240.127 27.808C239.839 29.632 239.215 31.36 238.255 32.992C237.391 34.528 236.383 35.92 235.231 37.168C234.079 38.416 232.927 39.472 231.775 40.336C230.719 41.2 229.855 41.776 229.183 42.064C228.703 42.352 228.175 42.544 227.599 42.64C227.119 42.64 226.687 42.544 226.303 42.352C225.919 42.064 225.679 41.728 225.583 41.344C225.583 40.96 225.823 40.48 226.303 39.904C226.495 39.712 226.783 39.424 227.167 39.04C227.551 38.56 227.935 38.032 228.319 37.456C228.799 36.88 229.231 36.304 229.615 35.728C229.999 35.152 230.239 34.576 230.335 34C230.527 32.944 230.335 32.08 229.759 31.408C229.279 30.64 228.463 29.872 227.311 29.104C225.967 28.24 225.055 26.944 224.575 25.216C224.095 23.488 224.383 21.808 225.439 20.176C226.495 18.448 227.791 17.392 229.327 17.008C230.959 16.528 232.687 16.576 234.511 17.152ZM183.247 83.824C184.495 79.408 186.511 75.856 189.295 73.168C192.175 70.48 195.295 68.56 198.655 67.408C202.111 66.256 205.615 65.776 209.167 65.968C212.719 66.064 215.839 66.784 218.527 68.128C221.311 69.376 223.423 71.104 224.863 73.312C226.303 75.52 226.639 78.064 225.871 80.944L221.551 96.352C220.975 98.56 219.583 100.96 217.375 103.552C215.167 106.144 212.479 108.448 209.311 110.464C206.239 112.48 202.879 113.968 199.231 114.928C195.679 115.792 192.223 115.6 188.863 114.352C188.095 116.944 187.327 119.632 186.559 122.416C185.791 125.2 185.311 127.744 185.119 130.048C185.023 132.352 185.407 134.272 186.271 135.808C187.231 137.248 189.103 137.968 191.887 137.968C193.903 137.968 195.631 137.2 197.071 135.664C198.511 134.128 199.711 132.352 200.671 130.336C201.727 128.32 202.543 126.304 203.119 124.288C203.791 122.272 204.271 120.736 204.559 119.68C204.751 119.2 205.087 118.768 205.567 118.384C206.047 117.904 206.527 117.76 207.007 117.952C207.487 118.144 208.159 118.576 209.023 119.248C209.887 119.824 210.703 120.496 211.471 121.264C212.239 121.936 212.863 122.656 213.343 123.424C213.823 124.192 213.967 124.768 213.775 125.152C212.911 127.264 211.711 129.328 210.175 131.344C208.639 133.36 206.767 135.184 204.559 136.816C202.447 138.352 199.951 139.6 197.071 140.56C194.191 141.52 190.975 142 187.423 142C182.815 142 179.359 141.328 177.055 139.984C174.751 138.544 173.167 136.816 172.303 134.8C171.439 132.784 171.103 130.672 171.295 128.464C171.487 126.256 171.823 124.336 172.303 122.704L183.247 83.824ZM207.439 96.352C208.591 92.32 209.599 88.816 210.463 85.84C211.327 82.768 211.903 80.272 212.191 78.352C212.479 76.336 212.335 74.848 211.759 73.888C211.183 72.928 209.983 72.448 208.159 72.448C205.759 72.448 203.791 73.264 202.255 74.896C200.719 76.528 199.327 78.928 198.079 82.096C196.831 85.264 195.583 89.248 194.335 94.048C193.087 98.752 191.599 104.224 189.871 110.464C191.215 110.944 192.751 110.944 194.479 110.464C196.207 109.984 197.935 109.12 199.663 107.872C201.391 106.624 202.927 105.04 204.271 103.12C205.711 101.104 206.767 98.848 207.439 96.352ZM192.607 59.344C192.703 59.248 193.135 58.672 193.903 57.616C194.767 56.56 195.775 55.264 196.927 53.728C198.175 52.192 199.471 50.56 200.815 48.832C202.255 47.008 203.551 45.328 204.703 43.792C205.951 42.256 207.007 40.96 207.871 39.904C208.735 38.848 209.215 38.224 209.311 38.032C209.503 37.84 209.887 37.648 210.463 37.456C211.135 37.168 211.855 36.928 212.623 36.736C213.391 36.448 214.063 36.256 214.639 36.16C215.311 35.968 215.743 35.872 215.935 35.872C216.319 35.872 216.703 36.064 217.087 36.448C217.567 36.832 218.143 37.792 218.815 39.328C219.199 40.288 219.871 41.776 220.831 43.792C221.887 45.712 222.943 47.68 223.999 49.696C225.055 51.712 225.967 53.536 226.735 55.168C227.599 56.8 228.031 57.712 228.031 57.904C228.127 58.288 227.887 58.672 227.311 59.056C226.831 59.344 226.207 59.536 225.439 59.632C225.055 59.728 224.527 59.824 223.855 59.92C223.183 59.92 222.511 59.968 221.839 60.064C221.167 60.064 220.543 60.112 219.967 60.208C219.487 60.208 219.199 60.208 219.103 60.208C218.335 60.208 217.711 59.776 217.231 58.912C216.847 58.048 216.271 56.944 215.503 55.6C215.119 54.832 214.639 53.968 214.063 53.008C213.583 52.048 213.103 51.088 212.623 50.128C212.047 49.072 211.423 47.968 210.751 46.816C208.927 48.928 207.247 50.848 205.711 52.576C204.367 54.016 203.119 55.408 201.967 56.752C200.815 58 200.143 58.768 199.951 59.056C199.471 59.632 198.607 60.208 197.359 60.784C196.207 61.36 195.103 61.504 194.047 61.216C193.471 61.024 193.039 60.736 192.751 60.352C192.463 59.968 192.415 59.632 192.607 59.344Z" stroke="#87CEEB" stroke-width="12" mask="url(#path-1-outside-1)" />
    <path class="path4" stroke-dasharray="1000" stroke-dashoffset="1000" d="M266.894 127.456C266.126 130.24 265.646 132.4 265.454 133.936C265.262 135.376 265.214 136.48 265.31 137.248C265.502 138.016 265.742 138.544 266.03 138.832C266.414 139.12 266.846 139.408 267.326 139.696C265.694 141.136 263.822 141.904 261.71 142C259.694 142.192 257.87 141.76 256.238 140.704C254.606 139.552 253.406 137.872 252.638 135.664C251.87 133.456 251.918 130.72 252.782 127.456L265.022 83.968C265.886 80.8 266.27 78.688 266.174 77.632C266.078 76.48 265.598 76.144 264.734 76.624C263.87 77.104 262.718 78.208 261.278 79.936C259.934 81.568 258.446 83.536 256.814 85.84C255.182 88.144 253.454 90.64 251.63 93.328C249.902 96.016 248.27 98.512 246.734 100.816L239.246 127.456C238.478 130.24 237.998 132.4 237.806 133.936C237.614 135.376 237.566 136.48 237.662 137.248C237.854 138.016 238.094 138.544 238.382 138.832C238.766 139.12 239.198 139.408 239.678 139.696C238.046 141.136 236.174 141.904 234.062 142C232.046 142.192 230.222 141.76 228.59 140.704C226.958 139.552 225.758 137.872 224.99 135.664C224.222 133.456 224.27 130.72 225.134 127.456C227.342 119.584 229.214 112.96 230.75 107.584C232.286 102.112 233.534 97.6 234.494 94.048C235.454 90.496 236.222 87.712 236.798 85.696C237.374 83.68 237.806 82.144 238.094 81.088C238.478 80.032 238.718 79.264 238.814 78.784C238.91 78.304 239.054 77.824 239.246 77.344C239.342 76.864 239.246 76.576 238.958 76.48C238.67 76.384 238.334 76.288 237.95 76.192C237.566 76.096 237.182 76 236.798 75.904C236.414 75.808 236.222 75.52 236.222 75.04C236.222 74.944 236.606 74.416 237.374 73.456C238.238 72.496 239.294 71.488 240.542 70.432C241.79 69.28 243.182 68.272 244.718 67.408C246.254 66.544 247.694 66.112 249.038 66.112C251.342 66.112 252.878 66.64 253.646 67.696C254.414 68.752 254.654 70.384 254.366 72.592C254.174 74.704 253.55 77.344 252.494 80.512C251.534 83.68 250.478 87.376 249.326 91.6C251.054 88.816 252.926 85.936 254.942 82.96C256.958 79.888 258.926 77.104 260.846 74.608C262.862 72.112 264.686 70.096 266.318 68.56C268.046 66.928 269.438 66.112 270.494 66.112C272.222 66.112 273.806 66.592 275.246 67.552C276.686 68.416 277.838 69.664 278.702 71.296C279.566 72.928 280.046 74.848 280.142 77.056C280.334 79.168 279.998 81.472 279.134 83.968L266.894 127.456Z" stroke="#87CEEB" stroke-width="12" mask="url(#path-1-outside-1)" />
</svg>
